<svg xmlns="http://www.w3.org/2000/svg" viewBox="0 0 349 272" fill="none">
  <path 
    d="M30.0617 31.879L8 4.52539L196.003 4.52539C204.615 4.07146 211.445 3.89921 217.087 4.0576C234.074 4.53446 251.394 12.9579 258.675 28.3128C263.535 38.5627 263.768 51.7944 257.974 71.924C240.84 111.786 217.703 120.817 186.067 117.042L237.055 230.951H344L331.972 267.714L237.598 267.923C218.525 267.965 201.237 256.712 193.556 239.254L139.785 117.042H97.6872L69.9704 192.796L11.1377 236.521L67.6171 80.2792L193.42 79.7548C198.605 79.7332 203.934 79.3553 208.5 76.8989C213.207 74.3665 217.357 70.2919 219.013 63.2903C219.756 56.4571 218.497 51.945 215.578 49.1381C212.338 46.0226 207.379 46.0227 202.878 46.0229H202.784H59.6402C48.1493 46.0229 37.2756 40.8233 30.0617 31.879Z" 
    fill="url(#paint0_linear)" 
    stroke="url(#paint1_linear)" 
    stroke-width="4"
  />
  <defs>
    <linearGradient id="paint0_linear" x1="176" y1="4" x2="176" y2="267.993" gradientUnits="userSpaceOnUse">
      <stop stop-color="#E56717"/>
      <stop offset="0.552885" stop-color="#D00000"/>
      <stop offset="1" stop-color="#730000"/>
    </linearGradient>
    <linearGradient id="paint1_linear" x1="344" y1="135.996" x2="8" y2="135.996" gradientUnits="userSpaceOnUse">
      <stop stop-color="#4E4731"/>
      <stop offset="0.764423" stop-color="#B4A572"/>
    </linearGradient>
  </defs>
</svg>
